<svg version="1.1" id="Layer_1" xmlns="http://www.w3.org/2000/svg" xmlns:xlink="http://www.w3.org/1999/xlink" x="0px" y="0px"
	 width="100%" viewBox="0 0 342 116" enable-background="new 0 0 342 116" xml:space="preserve">
<path fill="#000000" opacity="1.000000" stroke="none" 
	d="
M1.000000,70.000000 
	C1.000000,47.028862 1.000000,24.057724 1.000000,1.000000 
	C94.020874,1.000000 187.041779,1.000000 280.854736,1.258596 
	C274.705078,11.811196 267.763306,22.105202 260.647369,32.657551 
	C261.021790,32.801838 260.411835,32.645416 259.878998,32.349918 
	C248.033524,25.780634 237.805344,29.256432 228.098114,37.169178 
	C227.147385,37.944168 224.589752,37.749527 223.366974,37.019043 
	C217.455185,33.487350 211.552856,32.748493 205.600632,36.227280 
	C203.818054,34.772663 202.398636,33.364838 200.744736,32.332798 
	C198.981552,31.232565 197.025665,30.419489 195.102692,29.601402 
	C190.765030,27.756035 185.409760,28.859753 183.241287,32.601830 
	C181.549347,35.521557 180.155319,35.567497 177.344467,34.147526 
	C173.099716,32.003181 168.538910,30.700928 163.756348,33.021545 
	C163.320038,33.233261 162.407227,32.462986 161.836929,31.770742 
	C163.175385,28.207645 164.887268,25.115112 165.504486,21.817677 
	C166.706375,15.396690 166.953979,10.706193 159.708008,8.831299 
	C144.899139,2.955242 132.743637,7.089386 122.531517,17.802385 
	C118.968483,16.178755 115.481300,14.527958 111.943878,12.992936 
	C107.241882,10.952573 103.075676,11.377839 99.590828,15.832771 
	C97.470497,14.908382 95.684387,14.041870 93.736000,12.850335 
	C83.983353,7.984274 74.392593,3.439008 66.624664,15.130866 
	C63.641102,13.688218 61.037380,12.296576 58.331921,11.143690 
	C45.640282,5.735383 39.701897,6.948158 31.723331,17.905794 
	C20.225784,33.696350 10.268934,50.436970 2.937888,68.635841 
	C2.690101,69.250954 1.663554,69.552368 1.000000,70.000000 
z"/>
<path fill="#000000" opacity="1.000000" stroke="none" 
	d="
M213.000000,117.000000 
	C142.333313,117.000000 71.666626,117.000000 1.000000,117.000000 
	C1.000000,106.232475 1.000000,95.584900 1.265268,84.146729 
	C4.529784,87.753052 8.717653,90.234138 14.146057,91.384079 
	C23.141665,95.431618 28.580296,92.761635 30.351009,84.129120 
	C34.268566,89.865395 40.379807,90.330307 46.164902,92.159645 
	C56.670441,94.112862 60.385242,92.691757 61.340736,84.103905 
	C65.086487,86.144981 68.496956,88.112366 72.023270,90.326248 
	C72.463211,90.606773 72.787292,90.640808 73.436981,90.797058 
	C74.848663,91.197853 75.934746,91.476440 77.164917,92.166855 
	C87.827995,93.980652 88.916885,93.533005 93.457520,86.126610 
	C95.881256,86.932297 97.934471,87.703659 99.958664,88.464111 
	C97.940674,98.033089 103.438972,107.451302 112.120079,109.418457 
	C118.645493,112.336563 124.363060,111.011932 125.803558,106.110680 
	C128.139206,98.163635 129.966278,90.067108 132.346542,82.109848 
	C135.090958,83.487350 137.496872,84.788704 140.116119,86.401657 
	C146.572372,89.164673 152.756561,91.091698 158.402725,84.780998 
	C165.158279,86.254791 171.524033,87.680634 178.122833,89.420044 
	C187.000290,92.878922 190.535080,91.173332 196.349335,82.086906 
	C200.136658,83.700386 203.578827,85.227638 207.165192,87.166840 
	C212.194931,87.055649 217.080460,86.532509 221.976440,86.368561 
	C217.800110,92.740440 214.608231,94.580093 210.796997,92.236656 
	C205.060318,88.709312 197.368652,93.565483 196.986542,100.527512 
	C196.629379,107.035286 202.104324,112.415802 211.007355,114.344574 
	C211.449783,114.632355 211.776245,114.671944 212.498383,114.893257 
	C212.929352,115.716660 212.964676,116.358330 213.000000,117.000000 
z"/>
<path fill="#D4D1BE" opacity="1.000000" stroke="none" 
	d="
M210.891388,114.096367 
	C202.104324,112.415802 196.629379,107.035286 196.986542,100.527512 
	C197.368652,93.565483 205.060318,88.709312 210.796997,92.236656 
	C214.608231,94.580093 217.800110,92.740440 222.269440,86.255562 
	C223.026566,82.978760 221.133087,81.371712 218.332138,82.378990 
	C214.529037,83.746666 210.788406,85.288025 207.020981,86.754890 
	C203.578827,85.227638 200.136658,83.700386 196.321991,81.748550 
	C195.159256,79.968353 194.369003,78.612740 193.317902,76.809639 
	C190.920273,79.773422 189.230804,82.742813 186.742432,84.692604 
	C184.199783,86.684898 180.873199,87.676697 177.889786,89.106476 
	C171.524033,87.680634 165.158279,86.254791 158.371918,84.439148 
	C156.111832,83.659103 153.452011,82.301529 152.574554,83.045647 
	C148.729691,86.306305 144.391006,86.235031 139.902786,86.090057 
	C137.496872,84.788704 135.090958,83.487350 132.245667,81.789528 
	C130.679764,79.810471 129.553207,78.227875 127.786484,75.745949 
	C125.366608,84.530724 122.934830,92.392838 121.092598,100.390739 
	C119.891891,105.603531 117.389709,108.762260 111.890335,109.106522 
	C103.438972,107.451302 97.940674,98.033089 99.958664,88.464111 
	C97.934471,87.703659 95.881256,86.932297 93.136276,85.990295 
	C90.869781,84.949234 89.295044,84.078827 87.338440,82.997345 
	C86.392090,89.252419 81.856850,90.695854 77.020828,91.755028 
	C75.934746,91.476440 74.848663,91.197853 73.300629,90.595230 
	C72.556755,90.068718 72.246346,90.004906 71.907425,90.079758 
	C68.496956,88.112366 65.086487,86.144981 61.341507,83.633774 
	C61.006996,77.471428 61.006996,71.852905 61.006996,66.234390 
	C60.577793,66.193520 60.148590,66.152649 59.719383,66.111778 
	C58.510189,70.531693 56.537178,74.905640 56.267773,79.382111 
	C55.845753,86.394424 52.863106,90.456451 46.023422,91.748093 
	C40.379807,90.330307 34.268566,89.865395 30.344906,83.702332 
	C29.598179,78.482712 29.203043,73.787178 28.807909,69.091644 
	C26.620472,73.147041 25.072342,77.404427 24.193886,81.795776 
	C22.724829,89.139526 21.202688,90.724228 13.936662,91.053246 
	C8.717653,90.234138 4.529784,87.753052 1.265268,83.678070 
	C1.000000,79.643097 1.000000,75.286201 1.000000,70.464645 
	C1.663554,69.552368 2.690101,69.250954 2.937888,68.635841 
	C10.268934,50.436970 20.225784,33.696350 31.723331,17.905794 
	C39.701897,6.948158 45.640282,5.735383 58.331921,11.143690 
	C61.037380,12.296576 63.641102,13.688218 66.624664,15.130866 
	C74.392593,3.439008 83.983353,7.984274 93.769524,13.210571 
	C97.125374,17.010530 97.546837,20.879538 96.739120,25.209410 
	C94.862488,29.281258 93.272766,33.151775 91.683044,37.022297 
	C92.393951,37.342842 93.104866,37.663391 93.815781,37.983936 
	C94.841072,35.788197 96.205986,33.678337 96.789474,31.370882 
	C97.301468,29.346146 96.937195,27.099833 97.230194,24.712799 
	C98.308632,21.613024 99.116837,18.751835 99.925041,15.890646 
	C103.075676,11.377839 107.241882,10.952573 111.943878,12.992936 
	C115.481300,14.527958 118.968483,16.178755 122.531517,17.802385 
	C132.743637,7.089386 144.899139,2.955242 159.638672,9.228275 
	C163.477524,17.523973 156.936661,23.349724 156.325333,30.687208 
	C158.035965,31.151020 159.875824,31.649868 161.715683,32.148712 
	C162.407227,32.462986 163.320038,33.233261 163.756348,33.021545 
	C168.538910,30.700928 173.099716,32.003181 177.344467,34.147526 
	C180.155319,35.567497 181.549347,35.521557 183.241287,32.601830 
	C185.409760,28.859753 190.765030,27.756035 195.102692,29.601402 
	C197.025665,30.419489 198.981552,31.232565 200.744736,32.332798 
	C202.398636,33.364838 203.818054,34.772663 205.600632,36.227280 
	C211.552856,32.748493 217.455185,33.487350 223.366974,37.019043 
	C224.589752,37.749527 227.147385,37.944168 228.098114,37.169178 
	C237.805344,29.256432 248.033524,25.780634 259.878998,32.349918 
	C260.411835,32.645416 261.021790,32.801838 260.647369,32.657551 
	C267.763306,22.105202 274.705078,11.811196 281.323425,1.258596 
	C285.689240,1.000000 290.378510,1.000000 295.208862,1.275144 
	C297.506317,2.824793 299.662659,4.099297 301.881165,5.720118 
	C306.528412,12.228190 306.279144,14.899981 300.941254,20.644655 
	C297.867004,23.953169 295.014648,27.467840 291.043152,32.071125 
	C294.734192,32.071125 296.794647,32.071125 299.037384,32.391289 
	C300.822327,33.450054 302.431244,34.175388 304.026306,34.929981 
	C307.465454,36.556992 308.982117,35.580608 309.056580,31.678280 
	C309.123962,28.145943 309.705078,24.623402 310.020782,21.120789 
	C309.981873,21.145035 310.044098,21.212378 310.361115,21.013451 
	C312.563385,13.935775 317.095947,10.487334 322.548615,12.316657 
	C326.132568,13.519027 329.446808,15.525428 332.886963,17.527212 
	C338.976257,25.400702 338.902924,27.702837 332.367065,34.888950 
	C331.583160,35.750835 330.829376,36.640240 330.067413,37.521919 
	C327.956177,39.964970 326.630798,42.244576 327.690735,45.990376 
	C328.317413,48.205002 326.565430,51.211472 325.576996,53.742306 
	C322.513641,61.585705 318.729492,69.201134 316.340424,77.236649 
	C314.570160,83.190903 313.532776,85.168671 306.532043,86.039627 
	C304.107880,85.268333 302.057373,84.551178 300.006348,83.502930 
	C298.616974,80.393265 297.189941,80.263763 294.273987,81.844894 
	C290.496582,83.893127 286.061340,84.728218 281.547699,86.040070 
	C279.459656,85.340263 277.733276,84.685966 275.909393,83.713577 
	C274.765717,82.029160 273.719513,80.662834 272.355957,78.882072 
	C269.730438,84.307198 267.294769,89.085266 260.524506,89.061264 
	C258.772369,88.688522 257.388275,88.361816 255.958405,87.694778 
	C254.800201,85.684235 253.687775,84.014023 252.249527,81.854614 
	C250.881363,84.773270 249.951889,86.885605 248.916214,88.944527 
	C242.117706,102.460190 233.935318,114.289551 216.812439,115.252708 
	C216.509827,115.269722 216.269424,116.392944 216.000000,117.000000 
	C215.250000,117.000000 214.500000,117.000000 213.375000,117.000000 
	C212.964676,116.358330 212.929352,115.716660 212.359619,114.690796 
	C211.545761,114.095169 211.234497,114.025085 210.891388,114.096367 
M41.239456,14.835415 
	C39.484676,16.882904 37.729893,18.930393 35.999847,21.000076 
	C35.999847,21.000076 35.976692,20.977297 35.268196,20.935091 
	C33.840591,22.266665 32.054016,23.371664 31.046286,24.968250 
	C26.164879,32.702057 21.045740,40.337643 16.866831,48.449028 
	C12.323853,57.267086 8.176710,66.379456 4.904648,75.730110 
	C2.724805,81.959503 9.688305,88.826706 16.305393,87.815575 
	C17.328463,87.659248 18.120987,85.994156 19.001846,85.002708 
	C19.001846,85.002708 19.027792,85.017296 19.782961,84.927696 
	C20.248352,83.770996 20.867657,82.651176 21.155006,81.451820 
	C23.656719,71.009979 27.426378,61.102001 32.976826,51.747700 
	C32.976826,58.548416 32.976826,65.017990 32.910690,72.282959 
	C32.899040,74.319519 32.887390,76.356087 32.823212,79.220528 
	C34.231426,84.662094 40.104027,88.284050 47.289711,87.953110 
	C52.828724,87.698006 52.277927,83.096146 53.033421,79.503479 
	C55.372707,68.379166 59.531483,57.985085 65.778397,46.981480 
	C65.778397,49.367737 65.841393,50.445732 65.768463,51.514450 
	C65.169540,60.290806 64.331497,69.059387 64.082893,77.844955 
	C64.022614,79.975327 65.321190,83.259117 66.969055,84.097229 
	C70.722054,86.006027 75.033455,87.283012 79.215683,87.626411 
	C80.660210,87.745026 83.025429,84.579056 83.819016,82.478554 
	C84.620705,80.356590 83.995689,77.695602 83.995689,75.183083 
	C86.910789,77.669952 89.226677,80.322670 92.118988,81.952347 
	C96.323143,84.321190 99.700905,82.006927 101.015427,77.397972 
	C103.097221,70.098831 105.670364,62.934643 108.212265,55.776077 
	C108.752258,54.255306 110.050774,53.003880 110.999825,51.628361 
	C111.721840,53.208691 111.584496,54.325024 111.317574,55.409470 
	C109.052155,64.613480 106.615288,73.778404 104.533722,83.023468 
	C103.168732,89.085915 100.860252,95.517052 106.195999,100.867882 
	C108.255989,102.933701 110.957359,105.092270 113.621712,105.487251 
	C114.799797,105.661896 117.264824,101.763077 118.030495,99.358406 
	C122.724937,84.614937 127.066010,69.759277 131.634140,54.974773 
	C132.087662,53.506973 133.277542,52.266685 134.125656,50.920807 
	C134.466400,51.188511 134.807144,51.456211 135.147888,51.723915 
	C133.893448,55.845779 132.278824,59.899338 131.480743,64.107742 
	C130.592331,68.792511 129.567978,73.782234 133.300415,77.915993 
	C139.395447,84.666336 146.660721,85.427246 153.738129,77.684433 
	C159.515167,80.587936 164.833389,85.850769 171.892883,81.224365 
	C178.470200,87.829834 181.371536,87.614693 186.770966,80.405594 
	C189.270462,77.068336 191.819550,73.768242 194.463104,70.297768 
	C196.031601,73.709526 196.778046,76.748604 198.565170,78.938416 
	C202.846283,84.184280 209.942245,84.441673 216.613159,79.782928 
	C218.669952,78.346535 220.096985,77.789856 222.285461,79.499916 
	C224.038300,80.869545 226.275711,81.619003 228.866730,82.931831 
	C226.674515,86.058655 224.955338,89.125381 222.650742,91.659744 
	C218.797806,95.896812 214.571259,99.191162 208.279022,95.438278 
	C207.100479,94.735359 204.276169,95.550705 202.935028,96.594887 
	C198.963013,99.687401 199.793304,104.427353 204.552948,107.722847 
	C214.975540,114.939255 229.514267,112.611229 237.341949,101.720764 
	C241.868515,95.423088 245.285965,88.308578 248.983078,81.443489 
	C250.597565,78.445633 251.662186,75.151657 253.431030,70.899536 
	C253.956299,74.238541 253.735367,76.614937 254.723434,78.269234 
	C256.396729,81.070763 258.385345,84.729240 261.056213,85.641220 
	C264.927094,86.962936 266.903900,82.907471 268.585510,79.789726 
	C270.045105,77.083687 271.481812,74.365288 273.250732,71.048470 
	C275.116974,78.898773 279.053162,83.108147 283.749603,82.970131 
	C289.833221,82.791351 295.458191,78.325500 296.523102,73.041664 
	C296.523102,73.041664 296.800140,73.044434 297.144806,73.653206 
	C298.914368,76.021606 300.274628,78.925301 302.534088,80.652977 
	C308.175049,84.966179 311.272614,83.051628 313.404053,76.357018 
	C316.050812,68.044090 319.993347,60.148106 323.255096,52.023403 
	C324.023834,50.108589 325.401917,47.199177 324.616150,46.124668 
	C321.923981,42.443146 324.226990,40.277538 326.139160,37.840744 
	C328.192444,35.224144 330.895538,32.956146 332.301208,30.046259 
	C333.332947,27.910416 333.853027,23.874453 332.628326,22.635677 
	C329.827759,19.802923 326.021484,17.629412 322.241699,16.194199 
	C318.477966,14.765089 315.137878,16.548281 314.300598,20.740711 
	C313.407135,25.214363 313.241699,29.829044 312.541138,34.348469 
	C312.350311,35.579330 311.632996,36.988091 310.703033,37.785152 
	C309.240387,39.038746 307.392548,39.842918 305.542145,40.935173 
	C299.710388,35.617676 293.246338,33.145050 285.073456,36.194576 
	C289.654144,29.607935 294.729889,23.956589 299.351593,17.955553 
	C300.784210,16.095377 302.088043,12.985130 301.539368,10.966835 
	C299.924927,5.028142 286.420654,2.168660 282.542816,6.987954 
	C277.873169,12.791260 273.638031,19.013784 269.831024,25.420969 
	C266.408081,31.181768 263.818604,37.437805 260.359894,44.499454 
	C259.619354,42.209713 259.253815,41.010159 258.844482,39.825733 
	C257.005463,34.504074 251.777908,31.129398 246.275192,32.484200 
	C242.154419,33.498756 238.045456,35.110073 234.368881,37.218742 
	C230.992554,39.155190 228.201401,42.111908 224.813705,44.897663 
	C218.337738,34.399406 210.319534,37.169212 202.536850,42.448395 
	C200.344330,39.692162 198.720963,37.133884 196.600311,35.092068 
	C192.031036,30.692627 188.751694,31.132154 185.106873,36.236668 
	C183.810089,38.052784 182.495529,39.856201 181.138321,41.735722 
	C175.186661,35.440544 169.939957,34.344742 163.260300,37.229935 
	C159.079117,35.380417 155.360336,33.735432 151.740097,32.134041 
	C153.487183,27.749506 155.284821,23.310513 157.025848,18.849421 
	C158.951248,13.915868 156.412140,8.700159 151.435822,9.308423 
	C142.413635,10.411223 132.616913,10.587394 126.461922,19.291925 
	C125.229134,21.035372 123.879272,22.696043 122.900314,23.979414 
	C118.730103,21.333925 115.084740,18.339979 110.921104,16.554823 
	C105.866417,14.387631 102.950211,15.994438 101.531754,21.319902 
	C100.519409,25.120604 100.540337,29.185726 99.866997,33.092667 
	C99.584999,34.728878 99.155190,37.060314 98.014526,37.710365 
	C90.851433,41.792519 88.997131,48.873226 87.020836,55.953941 
	C86.584679,57.516609 86.237061,59.103992 85.848671,60.679993 
	C85.189339,58.655296 84.819794,56.740829 85.250374,55.027435 
	C87.715904,45.216412 90.468666,35.477150 92.894051,25.656754 
	C93.496666,23.216770 94.230263,20.058159 93.217278,18.104055 
	C89.439217,10.815924 76.231079,9.854074 70.380997,16.354826 
	C70.248573,16.732235 70.116150,17.109644 69.419777,17.937138 
	C67.286896,19.965124 65.154022,21.993111 63.004059,24.003820 
	C63.004059,24.003820 62.986729,23.991566 62.991673,23.161251 
	C62.167339,21.766405 61.343006,20.371561 60.408562,18.763393 
	C60.408562,18.763393 60.024555,18.484722 60.110111,17.683088 
	C57.523483,13.788656 49.334522,10.041338 45.462124,11.414573 
	C44.056408,11.913070 43.125404,13.750220 42.000000,14.999809 
	C42.000000,14.999809 41.977833,14.975157 41.239456,14.835415 
M29.478071,66.313034 
	C29.432148,66.249969 29.386225,66.186905 29.478071,66.313034 
z"/>
<path fill="#000000" opacity="1.000000" stroke="none" 
	d="
M300.006897,83.834023 
	C302.057373,84.551178 304.107880,85.268333 306.755859,86.357178 
	C315.304077,90.031998 321.166962,87.176949 322.006592,79.727753 
	C322.972717,71.156067 326.163574,63.454273 331.007874,56.295391 
	C332.565796,53.993080 333.947418,50.858501 333.751404,48.228268 
	C333.322357,42.471836 337.238464,35.195244 343.000000,33.000000 
	C343.000000,60.936718 343.000000,88.873436 343.000000,117.000000 
	C306.645996,117.000000 270.291656,117.000000 233.224579,116.681946 
	C244.326996,110.225105 250.576935,99.471230 256.004181,88.035103 
	C257.388275,88.361816 258.772369,88.688522 260.733398,89.397934 
	C268.297485,93.054970 272.924561,91.244957 276.006866,84.031662 
	C277.733276,84.685966 279.459656,85.340263 281.773621,86.360107 
	C288.836456,89.382828 294.672272,88.137619 300.006897,83.834023 
z"/>
<path fill="#000000" opacity="1.000000" stroke="none" 
	d="
M301.819000,5.373798 
	C299.662659,4.099297 297.506317,2.824793 295.674988,1.275144 
	C311.566589,1.000000 327.133179,1.000000 343.000000,1.000000 
	C343.000000,8.017969 343.000000,15.040202 342.713501,22.814241 
	C339.245270,21.434620 336.063538,19.303192 332.881805,17.171772 
	C329.446808,15.525428 326.132568,13.519027 322.548615,12.316657 
	C317.095947,10.487334 312.563385,13.935775 310.034088,20.682114 
	C311.938599,11.844760 309.559021,7.074942 301.819000,5.373798 
z"/>
<path fill="#808080" opacity="1.000000" stroke="none" 
	d="
M332.886963,17.527206 
	C336.063538,19.303192 339.245270,21.434620 342.713501,23.283024 
	C343.000000,26.030594 343.000000,29.061188 343.000000,32.545891 
	C337.238464,35.195244 333.322357,42.471836 333.751404,48.228268 
	C333.947418,50.858501 332.565796,53.993080 331.007874,56.295391 
	C326.163574,63.454273 322.972717,71.156067 322.006592,79.727753 
	C321.166962,87.176949 315.304077,90.031998 307.129517,86.411316 
	C313.532776,85.168671 314.570160,83.190903 316.340424,77.236649 
	C318.729492,69.201134 322.513641,61.585705 325.576996,53.742306 
	C326.565430,51.211472 328.317413,48.205002 327.690735,45.990376 
	C326.630798,42.244576 327.956177,39.964970 330.067413,37.521919 
	C330.829376,36.640240 331.583160,35.750835 332.367065,34.888950 
	C338.902924,27.702837 338.976257,25.400702 332.886963,17.527206 
z"/>
<path fill="#808080" opacity="1.000000" stroke="none" 
	d="
M255.958405,87.694778 
	C250.576935,99.471230 244.326996,110.225105 232.755920,116.681946 
	C227.645065,117.000000 222.290146,117.000000 216.467590,117.000000 
	C216.269424,116.392944 216.509827,115.269722 216.812439,115.252708 
	C233.935318,114.289551 242.117706,102.460190 248.916214,88.944527 
	C249.951889,86.885605 250.881363,84.773270 252.249527,81.854614 
	C253.687775,84.014023 254.800201,85.684235 255.958405,87.694778 
z"/>
<path fill="#80807F" opacity="1.000000" stroke="none" 
	d="
M161.836929,31.770744 
	C159.875824,31.649868 158.035965,31.151020 156.325333,30.687208 
	C156.936661,23.349724 163.477524,17.523973 159.805420,9.569601 
	C166.953979,10.706193 166.706375,15.396690 165.504486,21.817677 
	C164.887268,25.115112 163.175385,28.207645 161.836929,31.770744 
z"/>
<path fill="#91918C" opacity="1.000000" stroke="none" 
	d="
M99.590828,15.832770 
	C99.116837,18.751835 98.308632,21.613024 97.250824,24.722340 
	C97.001221,24.970467 97.026031,25.008080 97.026031,25.008080 
	C97.546837,20.879538 97.125374,17.010530 93.931793,13.535593 
	C95.684387,14.041870 97.470497,14.908382 99.590828,15.832770 
z"/>
<path fill="#808080" opacity="1.000000" stroke="none" 
	d="
M112.120079,109.418457 
	C117.389709,108.762260 119.891891,105.603531 121.092598,100.390739 
	C122.934830,92.392838 125.366608,84.530724 127.786484,75.745949 
	C129.553207,78.227875 130.679764,79.810471 131.907181,81.713379 
	C129.966278,90.067108 128.139206,98.163635 125.803558,106.110680 
	C124.363060,111.011932 118.645493,112.336563 112.120079,109.418457 
z"/>
<path fill="#828281" opacity="1.000000" stroke="none" 
	d="
M46.164902,92.159645 
	C52.863106,90.456451 55.845753,86.394424 56.267773,79.382111 
	C56.537178,74.905640 58.510189,70.531693 59.719383,66.111778 
	C60.148590,66.152649 60.577793,66.193520 61.006996,66.234390 
	C61.006996,71.852905 61.006996,77.471428 61.006226,83.560081 
	C60.385242,92.691757 56.670441,94.112862 46.164902,92.159645 
z"/>
<path fill="#818180" opacity="1.000000" stroke="none" 
	d="
M14.146057,91.384079 
	C21.202688,90.724228 22.724829,89.139526 24.193886,81.795776 
	C25.072342,77.404427 26.620472,73.147041 28.807909,69.091644 
	C29.203043,73.787178 29.598179,78.482712 29.999416,83.605042 
	C28.580296,92.761635 23.141665,95.431618 14.146057,91.384079 
z"/>
<path fill="#818180" opacity="1.000000" stroke="none" 
	d="
M178.122833,89.420044 
	C180.873199,87.676697 184.199783,86.684898 186.742432,84.692604 
	C189.230804,82.742813 190.920273,79.773422 193.317902,76.809639 
	C194.369003,78.612740 195.159256,79.968353 195.976822,81.662323 
	C190.535080,91.173332 187.000290,92.878922 178.122833,89.420044 
z"/>
<path fill="#808080" opacity="1.000000" stroke="none" 
	d="
M77.164917,92.166855 
	C81.856850,90.695854 86.392090,89.252419 87.338440,82.997345 
	C89.295044,84.078827 90.869781,84.949234 92.765762,85.955963 
	C88.916885,93.533005 87.827995,93.980652 77.164917,92.166855 
z"/>
<path fill="#818181" opacity="1.000000" stroke="none" 
	d="
M140.116119,86.401657 
	C144.391006,86.235031 148.729691,86.306305 152.574554,83.045647 
	C153.452011,82.301529 156.111832,83.659103 157.982117,84.391205 
	C152.756561,91.091698 146.572372,89.164673 140.116119,86.401657 
z"/>
<path fill="#808080" opacity="1.000000" stroke="none" 
	d="
M207.165192,87.166840 
	C210.788406,85.288025 214.529037,83.746666 218.332138,82.378990 
	C221.133087,81.371712 223.026566,82.978760 222.258972,85.896362 
	C217.080460,86.532509 212.194931,87.055649 207.165192,87.166840 
z"/>
<path fill="#808080" opacity="1.000000" stroke="none" 
	d="
M72.023270,90.326248 
	C72.246346,90.004906 72.556755,90.068718 72.975021,90.473022 
	C72.787292,90.640808 72.463211,90.606773 72.023270,90.326248 
z"/>
<path fill="#808080" opacity="1.000000" stroke="none" 
	d="
M211.007355,114.344574 
	C211.234497,114.025085 211.545761,114.095169 211.963959,114.509064 
	C211.776245,114.671944 211.449783,114.632355 211.007355,114.344574 
z"/>
<path fill="#FEFCFB" opacity="1.000000" stroke="none" 
	d="
M296.246094,73.048744 
	C295.458191,78.325500 289.833221,82.791351 283.749603,82.970131 
	C279.053162,83.108147 275.116974,78.898773 273.250732,71.048470 
	C271.481812,74.365288 270.045105,77.083687 268.585510,79.789726 
	C266.903900,82.907471 264.927094,86.962936 261.056213,85.641220 
	C258.385345,84.729240 256.396729,81.070763 254.723434,78.269234 
	C253.735367,76.614937 253.956299,74.238541 253.431030,70.899536 
	C251.662186,75.151657 250.597565,78.445633 248.983078,81.443489 
	C245.285965,88.308578 241.868515,95.423088 237.341949,101.720764 
	C229.514267,112.611229 214.975540,114.939255 204.552948,107.722847 
	C199.793304,104.427353 198.963013,99.687401 202.935028,96.594887 
	C204.276169,95.550705 207.100479,94.735359 208.279022,95.438278 
	C214.571259,99.191162 218.797806,95.896812 222.650742,91.659744 
	C224.955338,89.125381 226.674515,86.058655 228.866730,82.931831 
	C226.275711,81.619003 224.038300,80.869545 222.285461,79.499916 
	C220.096985,77.789856 218.669952,78.346535 216.613159,79.782928 
	C209.942245,84.441673 202.846283,84.184280 198.565170,78.938416 
	C196.778046,76.748604 196.031601,73.709526 194.463104,70.297768 
	C191.819550,73.768242 189.270462,77.068336 186.770966,80.405594 
	C181.371536,87.614693 178.470200,87.829834 171.892883,81.224365 
	C164.833389,85.850769 159.515167,80.587936 153.738129,77.684433 
	C146.660721,85.427246 139.395447,84.666336 133.300415,77.915993 
	C129.567978,73.782234 130.592331,68.792511 131.480743,64.107742 
	C132.278824,59.899338 133.893448,55.845779 135.147888,51.723915 
	C134.807144,51.456211 134.466400,51.188511 134.125656,50.920807 
	C133.277542,52.266685 132.087662,53.506973 131.634140,54.974773 
	C127.066010,69.759277 122.724937,84.614937 118.030495,99.358406 
	C117.264824,101.763077 114.799797,105.661896 113.621712,105.487251 
	C110.957359,105.092270 108.255989,102.933701 106.195999,100.867882 
	C100.860252,95.517052 103.168732,89.085915 104.533722,83.023468 
	C106.615288,73.778404 109.052155,64.613480 111.317574,55.409470 
	C111.584496,54.325024 111.721840,53.208691 110.999825,51.628361 
	C110.050774,53.003880 108.752258,54.255306 108.212265,55.776077 
	C105.670364,62.934643 103.097221,70.098831 101.015427,77.397972 
	C99.700905,82.006927 96.323143,84.321190 92.118988,81.952347 
	C89.226677,80.322670 86.910789,77.669952 83.995689,75.183083 
	C83.995689,77.695602 84.620705,80.356590 83.819016,82.478554 
	C83.025429,84.579056 80.660210,87.745026 79.215683,87.626411 
	C75.033455,87.283012 70.722054,86.006027 66.969055,84.097229 
	C65.321190,83.259117 64.022614,79.975327 64.082893,77.844955 
	C64.331497,69.059387 65.169540,60.290806 65.768463,51.514450 
	C65.841393,50.445732 65.778397,49.367737 65.778397,46.981480 
	C59.531483,57.985085 55.372707,68.379166 53.033421,79.503479 
	C52.277927,83.096146 52.828724,87.698006 47.289711,87.953110 
	C40.104027,88.284050 34.231426,84.662094 33.180199,79.011368 
	C34.443390,79.758682 35.183910,81.218475 36.285599,81.581131 
	C40.242790,82.883781 44.293972,84.221504 48.381649,84.504074 
	C49.095875,84.553452 50.339970,79.620483 51.028854,76.909714 
	C54.916637,61.611195 60.723801,47.247063 71.002121,35.002235 
	C71.000061,35.000015 70.995720,34.997322 71.007355,35.417641 
	C70.854324,37.153008 70.689804,38.468082 70.524979,39.783112 
	C69.020645,51.784786 67.247955,63.761478 66.127106,75.798859 
	C65.581322,81.660370 74.018265,87.098495 79.505638,84.835854 
	C80.393623,84.469719 81.285133,82.980843 81.355705,81.954590 
	C81.707466,76.839447 81.692627,71.700317 81.977501,66.579117 
	C82.803398,51.732204 84.990555,37.176849 91.143005,23.435619 
	C91.706528,22.177008 91.658302,19.944117 90.889481,18.912062 
	C87.763130,14.715284 78.989746,13.483795 74.215317,16.020021 
	C73.285309,16.514051 71.866394,16.087713 70.672989,16.085896 
	C76.231079,9.854074 89.439217,10.815924 93.217278,18.104055 
	C94.230263,20.058159 93.496666,23.216770 92.894051,25.656754 
	C90.468666,35.477150 87.715904,45.216412 85.250374,55.027435 
	C84.819794,56.740829 85.189339,58.655296 85.848671,60.679993 
	C86.237061,59.103992 86.584679,57.516609 87.020836,55.953941 
	C88.997131,48.873226 90.851433,41.792519 98.014526,37.710365 
	C99.155190,37.060314 99.584999,34.728878 99.866997,33.092667 
	C100.540337,29.185726 100.519409,25.120604 101.531754,21.319902 
	C102.950211,15.994438 105.866417,14.387631 110.921104,16.554823 
	C115.084740,18.339979 118.730103,21.333925 122.900314,23.979414 
	C123.879272,22.696043 125.229134,21.035372 126.461922,19.291925 
	C132.616913,10.587394 142.413635,10.411223 151.435822,9.308423 
	C156.412140,8.700159 158.951248,13.915868 157.025848,18.849421 
	C155.284821,23.310513 153.487183,27.749506 151.740097,32.134041 
	C155.360336,33.735432 159.079117,35.380417 163.260300,37.229935 
	C169.939957,34.344742 175.186661,35.440544 181.138321,41.735722 
	C182.495529,39.856201 183.810089,38.052784 185.106873,36.236668 
	C188.751694,31.132154 192.031036,30.692627 196.600311,35.092068 
	C198.720963,37.133884 200.344330,39.692162 202.536850,42.448395 
	C210.319534,37.169212 218.337738,34.399406 224.813705,44.897663 
	C228.201401,42.111908 230.992554,39.155190 234.368881,37.218742 
	C238.045456,35.110073 242.154419,33.498756 246.275192,32.484200 
	C251.777908,31.129398 257.005463,34.504074 258.844482,39.825733 
	C259.253815,41.010159 259.619354,42.209713 260.359894,44.499454 
	C263.818604,37.437805 266.408081,31.181768 269.831024,25.420969 
	C273.638031,19.013784 277.873169,12.791260 282.542816,6.987954 
	C286.420654,2.168660 299.924927,5.028142 301.539368,10.966835 
	C302.088043,12.985130 300.784210,16.095377 299.351593,17.955553 
	C294.729889,23.956589 289.654144,29.607935 285.073456,36.194576 
	C293.246338,33.145050 299.710388,35.617676 305.542145,40.935173 
	C307.392548,39.842918 309.240387,39.038746 310.703033,37.785152 
	C311.632996,36.988091 312.350311,35.579330 312.541138,34.348469 
	C313.241699,29.829044 313.407135,25.214363 314.300598,20.740711 
	C315.137878,16.548281 318.477966,14.765089 322.241699,16.194199 
	C326.021484,17.629412 329.827759,19.802923 332.628326,22.635677 
	C333.853027,23.874453 333.332947,27.910416 332.301208,30.046259 
	C330.895538,32.956146 328.192444,35.224144 326.139160,37.840744 
	C324.226990,40.277538 321.923981,42.443146 324.616150,46.124668 
	C325.401917,47.199177 324.023834,50.108589 323.255096,52.023403 
	C319.993347,60.148106 316.050812,68.044090 313.404053,76.357018 
	C311.272614,83.051628 308.175049,84.966179 302.534088,80.652977 
	C300.274628,78.925301 298.914368,76.021606 297.039917,72.913506 
	C297.309235,68.129593 297.683411,64.085381 298.228149,59.929050 
	C298.448517,59.553322 298.498260,59.289700 298.548035,59.026081 
	C298.350769,59.336201 298.153503,59.646317 297.667725,60.136429 
	C293.945953,64.288589 292.167847,68.408066 296.246094,73.048744 
M200.017273,47.021164 
	C200.017273,47.021164 199.919678,46.941380 199.934219,46.174007 
	C198.759079,43.493580 198.002701,40.508041 196.319489,38.197777 
	C193.058517,33.721954 189.585617,33.997387 186.546555,38.737293 
	C179.918945,49.074066 175.411301,60.333878 173.334854,72.405006 
	C172.887360,75.006516 174.238724,78.267380 175.619858,80.746254 
	C177.406235,83.952469 180.576813,83.889107 182.943192,80.993523 
	C185.149063,78.294334 187.057587,75.352577 189.255859,72.646660 
	C192.039246,69.220512 194.983246,65.924835 197.857956,62.572891 
	C198.436020,65.079742 198.147720,66.864525 198.023148,68.660660 
	C197.715271,73.099701 198.667435,77.198326 203.031265,79.193901 
	C207.247284,81.121887 211.556763,80.324501 215.309341,77.670616 
	C216.341095,76.940933 217.448502,75.271355 217.299149,74.204086 
	C217.140320,73.069191 215.647461,71.969826 214.511963,71.177612 
	C213.793015,70.676018 212.662476,70.764351 211.406952,70.530426 
	C212.533875,62.874416 214.930252,56.052479 220.006027,50.506588 
	C223.133560,47.089420 222.258255,44.185379 219.026764,42.251167 
	C216.899124,40.977665 213.543411,40.204567 211.334366,40.957737 
	C207.357056,42.313789 203.827774,44.983917 200.017273,47.021164 
M232.999374,76.999611 
	C232.999374,76.999611 232.986053,76.989525 233.001907,77.759155 
	C229.916214,83.372940 227.322342,89.342339 223.597549,94.494049 
	C220.298157,99.057426 212.921188,101.072197 209.911423,99.125534 
	C207.660309,97.669548 205.267014,95.780205 203.913315,99.179108 
	C203.287567,100.750252 204.586441,103.954018 206.040619,105.336029 
	C212.019730,111.018471 224.777908,110.517151 231.247986,104.091187 
	C235.199966,100.166115 239.069794,95.701225 241.452194,90.745926 
	C246.772339,79.680206 250.983582,68.087212 255.960037,56.847820 
	C258.259247,51.655029 259.365234,46.938038 256.819153,41.334335 
	C254.899048,37.108295 252.566696,34.956596 247.919693,34.958641 
	C241.251999,34.961571 236.077515,38.406235 231.514343,42.457542 
	C223.834839,49.275581 218.342911,57.527996 219.061813,68.449760 
	C219.605835,76.714729 225.788864,80.395386 232.999374,76.999611 
M277.997589,45.998226 
	C277.997589,45.998226 277.977234,45.982075 277.978271,45.230442 
	C278.553711,43.681671 278.830872,41.921768 279.753235,40.618519 
	C285.590485,32.370823 291.604584,24.248419 297.465912,16.017422 
	C298.315552,14.824244 299.493988,12.938081 299.096466,11.939276 
	C297.025940,6.737037 286.471649,5.703315 282.940521,10.049588 
	C269.165131,27.005016 261.502594,46.688843 257.408752,67.864624 
	C256.680511,71.631561 257.353851,75.778336 258.009888,79.642784 
	C258.228516,80.930588 260.311584,82.551064 261.736145,82.772507 
	C262.809753,82.939407 264.528595,81.348625 265.361938,80.130806 
	C266.759583,78.088318 267.488068,75.594475 268.841278,73.513741 
	C271.963318,68.713249 275.291290,64.046669 278.535706,59.325768 
	C278.986206,59.620640 279.436707,59.915512 279.887207,60.210384 
	C278.929535,63.691769 277.652435,67.123512 277.101440,70.668114 
	C276.517853,74.422462 276.996582,79.180573 281.326294,79.488098 
	C285.187195,79.762314 289.285431,77.315926 293.154877,75.761421 
	C293.492218,75.625908 293.378754,72.364761 292.669037,71.956665 
	C288.560730,69.594444 290.614624,66.894600 292.097565,64.457985 
	C295.465210,58.924667 298.937164,53.442768 302.639679,48.130211 
	C304.614288,45.296978 304.057617,43.305298 301.711060,41.230145 
	C297.033173,37.093311 290.594788,36.763371 285.145996,40.578465 
	C282.698792,42.291943 280.386719,44.198425 277.997589,45.998226 
M158.802353,77.850250 
	C160.789093,78.695030 162.714798,79.756355 164.775909,80.337296 
	C168.498398,81.386497 169.492737,79.670059 169.097229,75.837051 
	C168.635574,71.363075 168.536758,66.572632 169.669556,62.286625 
	C170.967667,57.375053 173.730469,52.837509 175.966110,48.189980 
	C179.073822,41.729546 178.111954,39.706818 171.110580,38.237438 
	C168.018341,37.588470 165.491043,38.209469 163.910522,41.194736 
	C162.591782,43.685566 161.330200,46.209198 159.934586,48.656284 
	C156.864838,54.038773 153.726334,59.382038 150.615906,64.741318 
	C150.154205,64.516220 149.692505,64.291122 149.230804,64.066025 
	C149.335434,63.317314 149.248367,62.470188 149.574402,61.835140 
	C152.757233,55.635487 155.759018,49.320347 159.353470,43.364677 
	C160.993042,40.648083 160.673279,39.217075 158.300842,37.650238 
	C154.363861,35.050125 149.914047,35.420361 146.640732,38.872299 
	C144.835556,40.775990 143.288696,42.924633 142.051910,44.440186 
	C139.833435,42.113625 137.653717,39.827698 134.681244,36.710403 
	C136.314835,33.310478 138.571655,28.613487 141.312408,22.909288 
	C142.113876,25.284561 142.386749,26.537710 142.947311,27.645264 
	C143.695129,29.122797 144.666489,30.487202 145.541824,31.900190 
	C147.079514,30.838911 149.231384,30.113506 150.032166,28.649229 
	C151.934174,25.171257 153.044052,21.270786 154.757339,17.676064 
	C156.698730,13.602733 154.163086,12.040907 151.133270,12.184780 
	C146.400665,12.409513 141.463104,12.967254 137.066772,14.604249 
	C129.219131,17.526367 125.165833,24.568563 121.816277,31.677559 
	C119.515945,36.559731 118.074844,41.634911 111.238937,41.621998 
	C110.130058,41.619904 109.018112,43.240444 107.933777,44.090427 
	C99.701561,38.098816 96.511559,38.526947 92.775879,47.794117 
	C90.014389,54.644588 88.670135,62.105629 87.103348,69.382683 
	C86.257103,73.313087 88.179810,76.539917 91.547119,78.725563 
	C95.150330,81.064323 96.715431,79.946815 98.194153,75.928223 
	C101.327209,67.413773 104.825188,59.011272 108.694115,50.808418 
	C109.486847,49.127666 112.560211,48.522591 114.582321,47.421684 
	C114.955528,47.871605 115.328728,48.321522 115.701927,48.771442 
	C115.285347,50.511009 114.880623,52.253517 114.450233,53.989662 
	C111.811752,64.633011 109.186066,75.279579 106.516762,85.915207 
	C105.295448,90.781433 104.349739,95.623047 108.425629,99.677521 
	C109.713661,100.958786 111.378342,101.861427 112.870644,102.937347 
	C113.856995,101.563766 115.291504,100.327293 115.760201,98.795334 
	C120.332993,83.848991 124.678642,68.833244 129.232498,53.880978 
	C131.199005,47.424095 131.787018,47.237915 139.416580,48.733311 
	C138.697006,50.624435 137.868240,52.414055 137.331482,54.287354 
	C135.827820,59.535210 133.948013,64.744286 133.156189,70.107384 
	C132.390549,75.293259 135.885269,78.190491 140.494659,80.073059 
	C145.163773,81.980019 148.121262,79.903610 150.763885,76.459206 
	C151.633499,75.325722 152.587677,74.257111 153.948196,72.624992 
	C155.603485,74.512589 156.896103,75.986633 158.802353,77.850250 
M311.016815,74.649643 
	C314.180359,66.842178 316.804535,58.748016 320.737030,51.349247 
	C322.678284,47.696899 322.623016,45.790520 319.718384,43.453426 
	C314.646393,39.372475 311.158325,38.875927 308.447937,42.531513 
	C301.608063,51.756725 299.771484,62.502354 300.318787,73.649803 
	C300.407990,75.466156 302.664978,77.588943 304.439423,78.823509 
	C308.107513,81.375587 310.134583,80.192131 311.016815,74.649643 
M316.973419,38.389446 
	C318.989166,40.262417 320.891693,40.654415 322.842133,38.206352 
	C325.407806,34.986012 328.218140,31.951735 330.638031,28.629717 
	C331.318237,27.695938 331.589233,25.248608 331.039307,24.834242 
	C327.809814,22.401020 324.367493,20.199141 320.780914,18.334768 
	C320.074005,17.967293 317.673309,19.139820 317.329895,20.072163 
	C315.208984,25.830442 313.410217,31.721451 316.973419,38.389446 
M110.448502,18.966986 
	C108.463104,19.436041 105.230949,19.333040 104.707870,20.473055 
	C102.428520,25.440798 100.918915,30.845739 103.178200,36.273109 
	C103.774445,37.705444 105.477707,39.093754 106.972305,39.578758 
	C107.866631,39.868973 109.613907,38.611443 110.502388,37.622494 
	C112.597084,35.290947 114.291946,32.602913 116.357452,30.241838 
	C120.028633,26.045305 119.977753,24.765488 115.451134,21.676394 
	C114.090012,20.747519 112.600853,20.006275 110.448502,18.966986 
M142.325241,33.277149 
	C141.747330,32.494705 141.169434,31.712263 140.353317,30.607317 
	C139.261902,33.231117 136.095200,35.641376 140.365402,37.626160 
	C141.680588,38.237453 143.784424,37.151962 145.527145,36.843414 
	C145.430466,36.341507 145.333801,35.839600 145.237137,35.337696 
	C144.420700,34.794933 143.604279,34.252171 142.325241,33.277149 
z"/>
<path fill="#FFCED2" opacity="1.000000" stroke="none" 
	d="
M70.526993,16.220360 
	C71.866394,16.087713 73.285309,16.514051 74.215317,16.020021 
	C78.989746,13.483795 87.763130,14.715284 90.889481,18.912062 
	C91.658302,19.944117 91.706528,22.177008 91.143005,23.435619 
	C84.990555,37.176849 82.803398,51.732204 81.977501,66.579117 
	C81.692627,71.700317 81.707466,76.839447 81.355705,81.954590 
	C81.285133,82.980843 80.393623,84.469719 79.505638,84.835854 
	C74.018265,87.098495 65.581322,81.660370 66.127106,75.798859 
	C67.247955,63.761478 69.020645,51.784786 70.524979,39.783112 
	C70.689804,38.468082 70.854324,37.153008 71.171234,35.313377 
	C71.383606,34.550320 71.443718,34.311844 71.503830,34.073364 
	C71.337280,34.383728 71.170738,34.694088 71.004189,35.004452 
	C60.723801,47.247063 54.916637,61.611195 51.028854,76.909714 
	C50.339970,79.620483 49.095875,84.553452 48.381649,84.504074 
	C44.293972,84.221504 40.242790,82.883781 36.285599,81.581131 
	C35.183910,81.218475 34.443390,79.758682 33.206463,78.597427 
	C32.887390,76.356087 32.899040,74.319519 33.306885,71.665268 
	C34.076283,70.520004 34.708702,70.026756 34.783768,69.459724 
	C35.892063,61.087669 36.960552,52.709774 37.930420,44.320770 
	C38.039127,43.380486 37.489555,42.364098 36.860107,39.836277 
	C33.641693,45.401070 30.862679,49.514660 28.776632,53.953888 
	C24.129219,63.843849 18.746410,73.559639 19.027792,85.017296 
	C19.027792,85.017296 19.001846,85.002708 18.592340,84.990540 
	C8.099014,84.917381 4.178809,80.392677 8.448234,71.689072 
	C15.974886,56.345337 24.702517,41.590759 32.925350,26.588434 
	C33.948650,24.721447 34.959869,22.847837 35.976692,20.977297 
	C35.976692,20.977297 35.999847,21.000076 36.331345,20.960712 
	C38.434502,18.939283 40.206165,16.957220 41.977833,14.975157 
	C41.977833,14.975157 42.000000,14.999809 42.358841,14.966599 
	C49.371399,11.805426 54.496288,16.127974 60.024555,18.484722 
	C60.024555,18.484722 60.408562,18.763393 60.562569,19.241104 
	C60.348438,21.120834 60.008106,22.530857 59.607235,23.923454 
	C58.069256,29.266285 56.511852,34.603527 54.761772,40.158562 
	C54.438660,41.197094 54.315472,42.019913 54.192284,42.842728 
	C54.394821,42.901142 54.597359,42.959553 54.799900,43.017967 
	C55.179668,42.336697 55.559437,41.655430 56.124168,40.687588 
	C60.331551,34.418064 64.428123,28.482700 68.321274,22.416782 
	C69.229897,21.001045 69.447945,19.142086 69.983734,17.487053 
	C70.116150,17.109644 70.248573,16.732235 70.526993,16.220360 
M38.461441,39.305420 
	C38.395374,39.245323 38.329304,39.185230 38.461441,39.305420 
z"/>
<path fill="#FEFCFB" opacity="1.000000" stroke="none" 
	d="
M35.622444,20.956194 
	C34.959869,22.847837 33.948650,24.721447 32.925350,26.588434 
	C24.702517,41.590759 15.974886,56.345337 8.448234,71.689072 
	C4.178809,80.392677 8.099014,84.917381 18.601480,85.002586 
	C18.120987,85.994156 17.328463,87.659248 16.305393,87.815575 
	C9.688305,88.826706 2.724805,81.959503 4.904648,75.730110 
	C8.176710,66.379456 12.323853,57.267086 16.866831,48.449028 
	C21.045740,40.337643 26.164879,32.702057 31.046286,24.968250 
	C32.054016,23.371664 33.840591,22.266665 35.622444,20.956194 
z"/>
<path fill="#FEFCFB" opacity="1.000000" stroke="none" 
	d="
M19.405376,84.972496 
	C18.746410,73.559639 24.129219,63.843849 28.776632,53.953888 
	C30.862679,49.514660 33.641693,45.401070 36.860107,39.836277 
	C37.489555,42.364098 38.039127,43.380486 37.930420,44.320770 
	C36.960552,52.709774 35.892063,61.087669 34.783768,69.459724 
	C34.708702,70.026756 34.076283,70.520004 33.339951,71.267563 
	C32.976826,65.017990 32.976826,58.548416 32.976826,51.747700 
	C27.426378,61.102001 23.656719,71.009979 21.155006,81.451820 
	C20.867657,82.651176 20.248352,83.770996 19.405376,84.972496 
M34.519169,48.784676 
	C34.569187,48.829784 34.619209,48.874893 34.519169,48.784676 
z"/>
<path fill="#80807F" opacity="1.000000" stroke="none" 
	d="
M301.881165,5.720115 
	C309.559021,7.074942 311.938599,11.844760 309.717072,20.881039 
	C310.044098,21.212378 309.981873,21.145035 309.798950,20.775993 
	C306.029053,24.295008 302.442078,28.183064 298.855072,32.071121 
	C296.794647,32.071125 294.734192,32.071125 291.043152,32.071125 
	C295.014648,27.467840 297.867004,23.953169 300.941254,20.644655 
	C306.279144,14.899981 306.528412,12.228190 301.881165,5.720115 
z"/>
<path fill="#FEFCFB" opacity="1.000000" stroke="none" 
	d="
M69.701752,17.712095 
	C69.447945,19.142086 69.229897,21.001045 68.321274,22.416782 
	C64.428123,28.482700 60.331551,34.418064 55.928730,40.550301 
	C55.305462,40.484039 55.109921,40.231796 54.961693,39.942852 
	C56.511852,34.603527 58.069256,29.266285 59.607235,23.923454 
	C60.008106,22.530857 60.348438,21.120834 60.617622,19.347765 
	C61.343006,20.371561 62.167339,21.766405 62.755898,23.778286 
	C62.301235,24.968853 62.082348,25.542385 61.727135,26.220934 
	C61.551025,26.549814 61.511238,26.773676 61.471451,26.997538 
	C61.626823,26.722836 61.782192,26.448132 62.179138,25.971115 
	C62.620857,25.186234 62.820999,24.603666 63.021145,24.021099 
	C65.154022,21.993111 67.286896,19.965124 69.701752,17.712095 
z"/>
<path fill="#000000" opacity="1.000000" stroke="none" 
	d="
M299.037384,32.391289 
	C302.442078,28.183064 306.029053,24.295008 309.837891,20.751745 
	C309.705078,24.623402 309.123962,28.145943 309.056580,31.678280 
	C308.982117,35.580608 307.465454,36.556992 304.026306,34.929981 
	C302.431244,34.175388 300.822327,33.450054 299.037384,32.391289 
z"/>
<path fill="#818180" opacity="1.000000" stroke="none" 
	d="
M275.909393,83.713577 
	C272.924561,91.244957 268.297485,93.054970 261.101440,89.443954 
	C267.294769,89.085266 269.730438,84.307198 272.355957,78.882072 
	C273.719513,80.662834 274.765717,82.029160 275.909393,83.713577 
z"/>
<path fill="#838281" opacity="1.000000" stroke="none" 
	d="
M300.006348,83.502930 
	C294.672272,88.137619 288.836456,89.382828 282.135254,86.405624 
	C286.061340,84.728218 290.496582,83.893127 294.273987,81.844894 
	C297.189941,80.263763 298.616974,80.393265 300.006348,83.502930 
z"/>
<path fill="#FEFCFB" opacity="1.000000" stroke="none" 
	d="
M60.067333,18.083904 
	C54.496288,16.127974 49.371399,11.805426 42.347740,14.954983 
	C43.125404,13.750220 44.056408,11.913070 45.462124,11.414573 
	C49.334522,10.041338 57.523483,13.788656 60.067333,18.083904 
z"/>
<path fill="#898986" opacity="1.000000" stroke="none" 
	d="
M96.980591,24.960926 
	C96.937195,27.099833 97.301468,29.346146 96.789474,31.370882 
	C96.205986,33.678337 94.841072,35.788197 93.815781,37.983936 
	C93.104866,37.663391 92.393951,37.342842 91.683044,37.022297 
	C93.272766,33.151775 94.862488,29.281258 96.739120,25.209410 
	C97.026031,25.008080 97.001221,24.970467 96.980591,24.960926 
z"/>
<path fill="#DCD9C8" opacity="1.000000" stroke="none" 
	d="
M296.384583,73.045204 
	C292.167847,68.408066 293.945953,64.288589 297.692291,60.158539 
	C298.005341,60.000656 298.057587,60.041161 298.057587,60.041161 
	C297.683411,64.085381 297.309235,68.129593 296.867584,72.609116 
	C296.800140,73.044434 296.523102,73.041664 296.384583,73.045204 
z"/>
<path fill="#FEFCFB" opacity="1.000000" stroke="none" 
	d="
M41.608643,14.905285 
	C40.206165,16.957220 38.434502,18.939283 36.318977,20.949615 
	C37.729893,18.930393 39.484676,16.882904 41.608643,14.905285 
z"/>
<path fill="#818180" opacity="1.000000" stroke="none" 
	d="
M29.409187,66.218437 
	C29.386225,66.186905 29.432148,66.249969 29.409187,66.218437 
z"/>
<path fill="#FFCED3" opacity="1.000000" stroke="none" 
	d="
M158.495544,77.655464 
	C156.896103,75.986633 155.603485,74.512589 153.948196,72.624992 
	C152.587677,74.257111 151.633499,75.325722 150.763885,76.459206 
	C148.121262,79.903610 145.163773,81.980019 140.494659,80.073059 
	C135.885269,78.190491 132.390549,75.293259 133.156189,70.107384 
	C133.948013,64.744286 135.827820,59.535210 137.331482,54.287354 
	C137.868240,52.414055 138.697006,50.624435 139.416580,48.733311 
	C131.787018,47.237915 131.199005,47.424095 129.232498,53.880978 
	C124.678642,68.833244 120.332993,83.848991 115.760201,98.795334 
	C115.291504,100.327293 113.856995,101.563766 112.870644,102.937347 
	C111.378342,101.861427 109.713661,100.958786 108.425629,99.677521 
	C104.349739,95.623047 105.295448,90.781433 106.516762,85.915207 
	C109.186066,75.279579 111.811752,64.633011 114.450233,53.989662 
	C114.880623,52.253517 115.285347,50.511009 115.701927,48.771442 
	C115.328728,48.321522 114.955528,47.871605 114.582321,47.421684 
	C112.560211,48.522591 109.486847,49.127666 108.694115,50.808418 
	C104.825188,59.011272 101.327209,67.413773 98.194153,75.928223 
	C96.715431,79.946815 95.150330,81.064323 91.547119,78.725563 
	C88.179810,76.539917 86.257103,73.313087 87.103348,69.382683 
	C88.670135,62.105629 90.014389,54.644588 92.775879,47.794117 
	C96.511559,38.526947 99.701561,38.098816 107.933777,44.090427 
	C109.018112,43.240444 110.130058,41.619904 111.238937,41.621998 
	C118.074844,41.634911 119.515945,36.559731 121.816277,31.677559 
	C125.165833,24.568563 129.219131,17.526367 137.066772,14.604249 
	C141.463104,12.967254 146.400665,12.409513 151.133270,12.184780 
	C154.163086,12.040907 156.698730,13.602733 154.757339,17.676064 
	C153.044052,21.270786 151.934174,25.171257 150.032166,28.649229 
	C149.231384,30.113506 147.079514,30.838911 145.541824,31.900192 
	C144.666489,30.487202 143.695129,29.122797 142.947311,27.645264 
	C142.386749,26.537710 142.113876,25.284561 141.312408,22.909288 
	C138.571655,28.613487 136.314835,33.310478 134.681244,36.710403 
	C137.653717,39.827698 139.833435,42.113625 142.051910,44.440186 
	C143.288696,42.924633 144.835556,40.775990 146.640732,38.872299 
	C149.914047,35.420361 154.363861,35.050125 158.300842,37.650238 
	C160.673279,39.217075 160.993042,40.648083 159.353470,43.364677 
	C155.759018,49.320347 152.757233,55.635487 149.574402,61.835140 
	C149.248367,62.470188 149.335434,63.317314 149.230804,64.066025 
	C149.692505,64.291122 150.154205,64.516220 150.615906,64.741318 
	C153.726334,59.382038 156.864838,54.038773 159.934586,48.656284 
	C161.330200,46.209198 162.591782,43.685566 163.910522,41.194736 
	C165.491043,38.209469 168.018341,37.588470 171.110580,38.237438 
	C178.111954,39.706818 179.073822,41.729546 175.966110,48.189980 
	C173.730469,52.837509 170.967667,57.375053 169.669556,62.286625 
	C168.536758,66.572632 168.635574,71.363075 169.097229,75.837051 
	C169.492737,79.670059 168.498398,81.386497 164.775909,80.337296 
	C162.714798,79.756355 160.789093,78.695030 158.495544,77.655464 
z"/>
<path fill="#FFCED2" opacity="1.000000" stroke="none" 
	d="
M278.013306,46.017326 
	C280.386719,44.198425 282.698792,42.291943 285.145996,40.578465 
	C290.594788,36.763371 297.033173,37.093311 301.711060,41.230145 
	C304.057617,43.305298 304.614288,45.296978 302.639679,48.130211 
	C298.937164,53.442768 295.465210,58.924667 292.097565,64.457985 
	C290.614624,66.894600 288.560730,69.594444 292.669037,71.956665 
	C293.378754,72.364761 293.492218,75.625908 293.154877,75.761421 
	C289.285431,77.315926 285.187195,79.762314 281.326294,79.488098 
	C276.996582,79.180573 276.517853,74.422462 277.101440,70.668114 
	C277.652435,67.123512 278.929535,63.691769 279.887207,60.210384 
	C279.436707,59.915512 278.986206,59.620640 278.535706,59.325768 
	C275.291290,64.046669 271.963318,68.713249 268.841278,73.513741 
	C267.488068,75.594475 266.759583,78.088318 265.361938,80.130806 
	C264.528595,81.348625 262.809753,82.939407 261.736145,82.772507 
	C260.311584,82.551064 258.228516,80.930588 258.009888,79.642784 
	C257.353851,75.778336 256.680511,71.631561 257.408752,67.864624 
	C261.502594,46.688843 269.165131,27.005016 282.940521,10.049588 
	C286.471649,5.703315 297.025940,6.737037 299.096466,11.939276 
	C299.493988,12.938081 298.315552,14.824244 297.465912,16.017422 
	C291.604584,24.248419 285.590485,32.370823 279.753235,40.618519 
	C278.830872,41.921768 278.553711,43.681671 277.864807,45.648666 
	C277.751312,46.066887 277.744629,46.387165 277.744629,46.387165 
	C277.744629,46.387165 278.013306,46.017326 278.013306,46.017326 
z"/>
<path fill="#FFCED3" opacity="1.000000" stroke="none" 
	d="
M233.008820,77.012253 
	C225.788864,80.395386 219.605835,76.714729 219.061813,68.449760 
	C218.342911,57.527996 223.834839,49.275581 231.514343,42.457542 
	C236.077515,38.406235 241.251999,34.961571 247.919693,34.958641 
	C252.566696,34.956596 254.899048,37.108295 256.819153,41.334335 
	C259.365234,46.938038 258.259247,51.655029 255.960037,56.847820 
	C250.983582,68.087212 246.772339,79.680206 241.452194,90.745926 
	C239.069794,95.701225 235.199966,100.166115 231.247986,104.091187 
	C224.777908,110.517151 212.019730,111.018471 206.040619,105.336029 
	C204.586441,103.954018 203.287567,100.750252 203.913315,99.179108 
	C205.267014,95.780205 207.660309,97.669548 209.911423,99.125534 
	C212.921188,101.072197 220.298157,99.057426 223.597549,94.494049 
	C227.322342,89.342339 229.916214,83.372940 233.092575,77.341095 
	C233.183243,76.923027 233.213028,76.680420 233.213028,76.680420 
	C233.213028,76.680420 233.008820,77.012253 233.008820,77.012253 
M245.209366,49.014645 
	C238.783844,53.523827 234.648193,59.715469 231.799713,67.091370 
	C231.799713,67.091370 231.801987,67.364250 231.801987,67.364250 
	C231.801987,67.364250 232.003067,67.003960 232.688507,66.927170 
	C239.087585,62.421989 243.261017,56.248089 246.393845,48.797623 
	C246.445374,48.535286 246.496918,48.272949 246.548447,48.010609 
	C246.326004,48.303131 246.103561,48.595657 245.209366,49.014645 
z"/>
<path fill="#FFCED3" opacity="1.000000" stroke="none" 
	d="
M200.111328,47.105099 
	C203.827774,44.983917 207.357056,42.313789 211.334366,40.957737 
	C213.543411,40.204567 216.899124,40.977665 219.026764,42.251167 
	C222.258255,44.185379 223.133560,47.089420 220.006027,50.506588 
	C214.930252,56.052479 212.533875,62.874416 211.406952,70.530426 
	C212.662476,70.764351 213.793015,70.676018 214.511963,71.177612 
	C215.647461,71.969826 217.140320,73.069191 217.299149,74.204086 
	C217.448502,75.271355 216.341095,76.940933 215.309341,77.670616 
	C211.556763,80.324501 207.247284,81.121887 203.031265,79.193901 
	C198.667435,77.198326 197.715271,73.099701 198.023148,68.660660 
	C198.147720,66.864525 198.436020,65.079742 197.857956,62.572891 
	C194.983246,65.924835 192.039246,69.220512 189.255859,72.646660 
	C187.057587,75.352577 185.149063,78.294334 182.943192,80.993523 
	C180.576813,83.889107 177.406235,83.952469 175.619858,80.746254 
	C174.238724,78.267380 172.887360,75.006516 173.334854,72.405006 
	C175.411301,60.333878 179.918945,49.074066 186.546555,38.737293 
	C189.585617,33.997387 193.058517,33.721954 196.319489,38.197777 
	C198.002701,40.508041 198.759079,43.493580 199.770782,46.691780 
	C199.555740,47.475338 199.504120,47.741127 199.452484,48.006920 
	C199.672104,47.706314 199.891708,47.405704 200.111328,47.105099 
z"/>
<path fill="#FFCED3" opacity="1.000000" stroke="none" 
	d="
M311.005524,75.065338 
	C310.134583,80.192131 308.107513,81.375587 304.439423,78.823509 
	C302.664978,77.588943 300.407990,75.466156 300.318787,73.649803 
	C299.771484,62.502354 301.608063,51.756725 308.447937,42.531513 
	C311.158325,38.875927 314.646393,39.372475 319.718384,43.453426 
	C322.623016,45.790520 322.678284,47.696899 320.737030,51.349247 
	C316.804535,58.748016 314.180359,66.842178 311.005524,75.065338 
z"/>
<path fill="#FFCED3" opacity="1.000000" stroke="none" 
	d="
M316.720154,38.082428 
	C313.410217,31.721451 315.208984,25.830442 317.329895,20.072163 
	C317.673309,19.139820 320.074005,17.967293 320.780914,18.334768 
	C324.367493,20.199141 327.809814,22.401020 331.039307,24.834242 
	C331.589233,25.248608 331.318237,27.695938 330.638031,28.629717 
	C328.218140,31.951735 325.407806,34.986012 322.842133,38.206352 
	C320.891693,40.654415 318.989166,40.262417 316.720154,38.082428 
z"/>
<path fill="#FFCED3" opacity="1.000000" stroke="none" 
	d="
M110.809425,19.073032 
	C112.600853,20.006275 114.090012,20.747519 115.451134,21.676394 
	C119.977753,24.765488 120.028633,26.045305 116.357452,30.241838 
	C114.291946,32.602913 112.597084,35.290947 110.502388,37.622494 
	C109.613907,38.611443 107.866631,39.868973 106.972305,39.578758 
	C105.477707,39.093754 103.774445,37.705444 103.178200,36.273109 
	C100.918915,30.845739 102.428520,25.440798 104.707870,20.473055 
	C105.230949,19.333040 108.463104,19.436041 110.809425,19.073032 
z"/>
<path fill="#D9D7C4" opacity="1.000000" stroke="none" 
	d="
M142.556549,33.493279 
	C143.604279,34.252171 144.420700,34.794933 145.237137,35.337696 
	C145.333801,35.839600 145.430466,36.341507 145.527145,36.843414 
	C143.784424,37.151962 141.680588,38.237453 140.365402,37.626160 
	C136.095200,35.641376 139.261902,33.231117 140.353317,30.607317 
	C141.169434,31.712263 141.747330,32.494705 142.556549,33.493279 
z"/>
<path fill="#DCD9C8" opacity="1.000000" stroke="none" 
	d="
M297.980774,59.978546 
	C298.153503,59.646317 298.350769,59.336201 298.548035,59.026081 
	C298.498260,59.289700 298.448517,59.553322 298.228149,59.929050 
	C298.057587,60.041161 298.005341,60.000656 297.980774,59.978546 
z"/>
<path fill="#FEFBFB" opacity="1.000000" stroke="none" 
	d="
M54.761772,40.158562 
	C55.109921,40.231796 55.305462,40.484039 55.743767,40.836876 
	C55.559437,41.655430 55.179668,42.336697 54.799900,43.017967 
	C54.597359,42.959553 54.394821,42.901142 54.192284,42.842728 
	C54.315472,42.019913 54.438660,41.197094 54.761772,40.158562 
z"/>
<path fill="#FEFBFB" opacity="1.000000" stroke="none" 
	d="
M71.002121,35.002235 
	C71.170738,34.694088 71.337280,34.383728 71.503830,34.073364 
	C71.443718,34.311844 71.383606,34.550320 71.159607,34.893059 
	C70.995720,34.997322 71.000061,35.000015 71.002121,35.002235 
z"/>
<path fill="#FEFBFB" opacity="1.000000" stroke="none" 
	d="
M38.362339,39.215279 
	C38.329304,39.185230 38.395374,39.245323 38.362339,39.215279 
z"/>
<path fill="#FEFBFB" opacity="1.000000" stroke="none" 
	d="
M34.594200,48.852337 
	C34.619209,48.874893 34.569187,48.829784 34.594200,48.852337 
z"/>
<path fill="#D4D1BE" opacity="1.000000" stroke="none" 
	d="
M63.012604,24.012459 
	C62.820999,24.603666 62.620857,25.186234 62.194191,25.913372 
	C61.967663,26.057943 61.863464,26.115919 61.863464,26.115917 
	C62.082348,25.542385 62.301235,24.968853 62.753426,24.193443 
	C62.986729,23.991566 63.004059,24.003820 63.012604,24.012459 
z"/>
<path fill="#FEFBFB" opacity="1.000000" stroke="none" 
	d="
M61.952614,26.115686 
	C61.782192,26.448132 61.626823,26.722836 61.471451,26.997538 
	C61.511238,26.773676 61.551025,26.549814 61.727139,26.220936 
	C61.863464,26.115919 61.967663,26.057943 61.952614,26.115686 
z"/>
<path fill="#FEFCFB" opacity="1.000000" stroke="none" 
	d="
M278.005432,46.007774 
	C278.013306,46.017326 277.744629,46.387165 277.744629,46.387165 
	C277.744629,46.387165 277.751312,46.066887 277.864258,46.024483 
	C277.977234,45.982075 277.997589,45.998226 278.005432,46.007774 
z"/>
<path fill="#FFFBFB" opacity="1.000000" stroke="none" 
	d="
M246.083710,49.061440 
	C243.261017,56.248089 239.087585,62.421989 232.344254,66.963585 
	C232.000000,67.000000 231.996674,66.997551 231.996674,66.997551 
	C234.648193,59.715469 238.783844,53.523827 245.595016,48.995750 
	C245.980667,48.976860 246.083710,49.061440 246.083710,49.061440 
z"/>
<path fill="#FFFBFB" opacity="1.000000" stroke="none" 
	d="
M245.930893,48.932518 
	C246.103561,48.595657 246.326004,48.303131 246.548462,48.010612 
	C246.496918,48.272949 246.445374,48.535286 246.238770,48.929531 
	C246.083710,49.061440 245.980667,48.976860 245.930893,48.932518 
z"/>
<path fill="#FEFCFB" opacity="1.000000" stroke="none" 
	d="
M233.004089,77.005936 
	C233.008820,77.012253 233.213028,76.680420 233.213028,76.680420 
	C233.213028,76.680420 233.183243,76.923027 233.084656,76.956276 
	C232.986053,76.989525 232.999374,76.999611 233.004089,77.005936 
z"/>
<path fill="#FFFBFB" opacity="1.000000" stroke="none" 
	d="
M232.001526,67.001984 
	C232.003067,67.003960 231.801987,67.364250 231.801987,67.364250 
	C231.801987,67.364250 231.799713,67.091370 231.898193,67.044464 
	C231.996674,66.997551 232.000000,67.000000 232.001526,67.001984 
z"/>
<path fill="#FEFCFB" opacity="1.000000" stroke="none" 
	d="
M200.064301,47.063133 
	C199.891708,47.405704 199.672104,47.706314 199.452484,48.006920 
	C199.504120,47.741127 199.555740,47.475338 199.763519,47.075462 
	C199.919678,46.941380 200.017273,47.021164 200.064301,47.063133 
z"/>
</svg>